<?xml version="1.0" encoding="UTF-8" standalone="no"?>
<!DOCTYPE svg PUBLIC "-//W3C//DTD SVG 1.1//EN" "http://www.w3.org/Graphics/SVG/1.1/DTD/svg11.dtd">
<svg width="100%" height="100%" viewBox="0 0 50 88" version="1.1" xmlns="http://www.w3.org/2000/svg" xmlns:xlink="http://www.w3.org/1999/xlink" xml:space="preserve" style="fill-rule:evenodd;clip-rule:evenodd;stroke-linejoin:round;stroke-miterlimit:1.41421;">
    <g transform="matrix(1,0,0,1,-17.4,-1)">
        <path d="M32.6,1L54.3,1C54.3,1 55.7,1.1 55.9,1.7L56.2,2.3C56.2,2.3 56.5,2.8 55.9,4.3L56,5.7C56,5.7 56.5,6 56.6,7C56.6,7 57,7.7 56.9,9.1L56.8,10.2C56.8,10.2 56.9,11.5 56.9,12.4L56.9,14.6L58.3,16.2L59.5,18.1L59.6,18.1L60.1,19.1L60.6,19.1L61.8,18.1C61.8,18.1 65.4,18.7 64,20.8L63.4,21.8C63.4,21.8 62.9,24.5 60.2,25.8L59,26.2C59,26.2 59.2,28 58.4,28.9L57.2,30.2C57.2,30.2 57.4,30.6 57.9,31.5C57.9,31.5 57.1,33.3 55.9,31.5L55.6,30.5C55.6,30.5 54.9,29.7 54.2,29.6C54.2,29.6 53.8,27.4 53.5,27.5C53.2,27.6 52.3,28.9 52.3,28.9L52.1,30C52.1,30 50.8,29.5 51.1,30.8C51.1,30.8 51.3,31.6 50.7,32.3L51.3,33.7C51.3,33.7 53.7,32.4 54,33.7C54,33.7 54.6,34.3 56,34.1C56,34.1 57.6,34.7 56.7,37.8C56.7,37.8 56.6,39.6 55.5,40.4C55.5,40.4 54.8,41.3 55.8,42.4C55.8,42.4 55,50.9 54.2,52.1C54.2,52.1 55.2,54.5 54.2,56.1L55.8,59.6C55.8,59.6 55.5,61.2 56.8,60.7C56.8,60.7 57.8,61.6 58.6,61.6L59.1,62.5C59.1,62.5 58.5,63.9 59.7,63.9L61.2,67.6L62.4,66.8L62.1,64L63.3,63.7L64.4,68L63.4,70L61.8,70C61.8,70 61.2,70.4 61.3,71.4C61.3,71.4 59.9,73 60.1,74.3L59.8,75.7L60,76.1L60,77.4C60,77.4 59.4,78.6 60.8,78.8L63.7,81L67.2,82.2L64,83.6L64.6,86L66.2,86L65.6,88L64,88L63.3,85.9L60.9,86.1L61,89L58.6,89L58.3,83.3L57.4,83.2C57.4,83.2 57.3,83.8 57.1,83.9C56.4,84.4 55.3,83 55.3,83L52.7,82.6L53.2,77.4C53.2,77.4 51,78 50.8,77.5C50.5,76.8 51.7,76.6 49.8,74.8L46.7,74.9L47,76.3C47,76.3 49,76.6 48.8,78.4L46.4,78.5L46,79.9L45.1,79.8L44.7,79L43.3,79.6L44.7,83.2L42.5,83.2L41.6,81.2L32.8,81.2C32.8,81.2 34.4,84.2 33.6,86.1L32.4,88.4L29.7,85.9L27.3,81.1C27.3,81.1 26.2,80.2 27.3,79.2C27.3,79.2 28.7,77.6 26.3,75.7L27.5,73.4L26.8,69.8L26.7,66.8L23.6,60.6L21.4,58.5C21.4,58.5 27.1,56.7 29.3,51.9C29.3,51.9 30.8,50.6 32,54.5L33.8,56L40.6,53.4L41.5,48.5L33,39.7C33,39.7 33.3,36.6 32.5,36.3C32,36.1 31,37.6 31,37.6L30.8,40.3L30.1,40L29.2,38.2L26.9,38.7C26.9,38.7 22.9,36.7 21.8,33.5C21.8,33.5 23,31.2 19.3,27.9L17.4,26.7L21.8,23.9L24.5,25.9L28.3,27.3L30.7,27.8L31.4,27.1L28.8,24.8L27.2,25.3L25.2,23.8L24,21.2L25.6,19.2L25.5,16.6L24.7,15.2C24.7,15.2 29.4,10.9 31.5,8.4C33.5,5.9 32.4,4.8 32.4,4.8L32.6,1Z" style="fill-rule:nonzero;"/>
    </g>
</svg>
