<?xml version="1.0" encoding="UTF-8" standalone="no"?>
<!DOCTYPE svg PUBLIC "-//W3C//DTD SVG 1.1//EN" "http://www.w3.org/Graphics/SVG/1.1/DTD/svg11.dtd">
<svg width="100%" height="100%" viewBox="0 0 93 37" version="1.1" xmlns="http://www.w3.org/2000/svg" xmlns:xlink="http://www.w3.org/1999/xlink" xml:space="preserve" style="fill-rule:evenodd;clip-rule:evenodd;stroke-linejoin:round;stroke-miterlimit:1.41421;">
    <g transform="matrix(1,0,0,1,-3.5,-7)">
        <path d="M5,27.5C4.2,27.5 3.5,26.8 3.5,26L3.5,25C3.5,24.2 4.2,23.5 5,23.5C5.8,23.5 6.5,24.2 6.5,25L6.5,26C6.5,26.8 5.8,27.5 5,27.5Z" style="fill:rgb(14,147,144);fill-rule:nonzero;"/>
        <path d="M11,27C10.6,27 10.2,26.8 9.9,26.6C9.8,26.5 9.8,26.5 9.7,26.4C9.6,26.3 9.6,26.2 9.6,26.1C9.6,26 9.5,25.9 9.5,25.8L9.5,25.2C9.5,25.1 9.5,25 9.6,24.9C9.6,24.8 9.7,24.7 9.7,24.6C9.8,24.5 9.8,24.4 9.9,24.4C10.3,24 10.8,23.9 11.3,24C11.4,24 11.5,24 11.6,24.1C11.7,24.1 11.8,24.2 11.9,24.2C12,24.2 12.1,24.3 12.1,24.4C12.2,24.5 12.2,24.5 12.3,24.6C12.3,24.7 12.4,24.8 12.4,24.9C12.4,25 12.5,25.1 12.5,25.2L12.5,25.8C12.5,25.9 12.5,26 12.4,26.1C12.4,26.2 12.3,26.3 12.3,26.4C12.2,26.5 12.2,26.5 12.1,26.6C11.8,26.8 11.4,27 11,27Z" style="fill:rgb(14,147,144);fill-rule:nonzero;"/>
        <path d="M17,34C16.2,34 15.5,33.3 15.5,32.5L15.5,18.5C15.5,17.7 16.2,17 17,17C17.8,17 18.5,17.7 18.5,18.5L18.5,32.5C18.5,33.3 17.8,34 17,34Z" style="fill:rgb(14,147,144);fill-rule:nonzero;"/>
        <path d="M29,39C28.2,39 27.5,38.3 27.5,37.5L27.5,13.5C27.5,12.7 28.2,12 29,12C29.8,12 30.5,12.7 30.5,13.5L30.5,37.5C30.5,38.3 29.8,39 29,39Z" style="fill:rgb(14,147,144);fill-rule:nonzero;"/>
        <path d="M23,44C22.2,44 21.5,43.3 21.5,42.5L21.5,8.5C21.5,7.7 22.2,7 23,7C23.8,7 24.5,7.7 24.5,8.5L24.5,42.5C24.5,43.3 23.8,44 23,44Z" style="fill:rgb(14,147,144);fill-rule:nonzero;"/>
        <path d="M35,33C34.2,33 33.5,32.3 33.5,31.5L33.5,19.5C33.5,18.7 34.2,18 35,18C35.8,18 36.5,18.7 36.5,19.5L36.5,31.5C36.5,32.3 35.8,33 35,33Z" style="fill:rgb(14,147,144);fill-rule:nonzero;"/>
        <path d="M41,29.5C40.2,29.5 39.5,28.8 39.5,28L39.5,23C39.5,22.2 40.2,21.5 41,21.5C41.8,21.5 42.5,22.2 42.5,23L42.5,28C42.5,28.8 41.8,29.5 41,29.5Z" style="fill:rgb(14,147,144);fill-rule:nonzero;"/>
        <path d="M47,30.5C46.2,30.5 45.5,29.8 45.5,29L45.5,22C45.5,21.2 46.2,20.5 47,20.5C47.8,20.5 48.5,21.2 48.5,22L48.5,29C48.5,29.8 47.8,30.5 47,30.5Z" style="fill:rgb(14,147,144);fill-rule:nonzero;"/>
        <path d="M53,32C52.2,32 51.5,31.3 51.5,30.5L51.5,20.5C51.5,19.7 52.2,19 53,19C53.8,19 54.5,19.7 54.5,20.5L54.5,30.5C54.5,31.3 53.8,32 53,32Z" style="fill:rgb(14,147,144);fill-rule:nonzero;"/>
        <path d="M59,29C58.2,29 57.5,28.3 57.5,27.5L57.5,23.5C57.5,22.7 58.2,22 59,22C59.8,22 60.5,22.7 60.5,23.5L60.5,27.5C60.5,28.3 59.8,29 59,29Z" style="fill:rgb(14,147,144);fill-rule:nonzero;"/>
        <path d="M65,28.5C64.2,28.5 63.5,27.8 63.5,27L63.5,24C63.5,23.2 64.2,22.5 65,22.5C65.8,22.5 66.5,23.2 66.5,24L66.5,27C66.5,27.8 65.8,28.5 65,28.5Z" style="fill:rgb(14,147,144);fill-rule:nonzero;"/>
        <path d="M71,27C70.9,27 70.8,27 70.7,27C70.6,27 70.5,27 70.4,26.9C70.3,26.9 70.2,26.8 70.1,26.8C70,26.7 69.9,26.7 69.9,26.6C69.8,26.5 69.8,26.5 69.7,26.4C69.7,26.3 69.6,26.2 69.6,26.1C69.6,26 69.5,25.9 69.5,25.8C69.5,25.7 69.5,25.6 69.5,25.5C69.5,25.1 69.7,24.7 69.9,24.4C70,24.3 70,24.3 70.1,24.2C70.2,24.1 70.3,24.1 70.4,24.1C70.5,24.1 70.6,24 70.7,24C70.9,24 71.1,24 71.3,24C71.4,24 71.5,24 71.6,24.1C71.7,24.1 71.8,24.2 71.9,24.2C72,24.2 72.1,24.3 72.1,24.4C72.4,24.7 72.5,25.1 72.5,25.5C72.5,25.6 72.5,25.7 72.5,25.8C72.5,25.9 72.5,26 72.4,26.1C72.4,26.2 72.3,26.3 72.3,26.4C72.2,26.5 72.2,26.5 72.1,26.6C72,26.7 72,26.7 71.9,26.8C71.8,26.8 71.7,26.9 71.6,26.9C71.5,26.9 71.4,27 71.3,27C71.2,27 71.1,27 71,27Z" style="fill:rgb(14,147,144);fill-rule:nonzero;"/>
        <path d="M77,27.5C76.2,27.5 75.5,26.8 75.5,26L75.5,25C75.5,24.2 76.2,23.5 77,23.5C77.8,23.5 78.5,24.2 78.5,25L78.5,26C78.5,26.8 77.8,27.5 77,27.5Z" style="fill:rgb(14,147,144);fill-rule:nonzero;"/>
        <path d="M89,27.5C88.2,27.5 87.5,26.8 87.5,26L87.5,25C87.5,24.2 88.2,23.5 89,23.5C89.8,23.5 90.5,24.2 90.5,25L90.5,26C90.5,26.8 89.8,27.5 89,27.5Z" style="fill:rgb(14,147,144);fill-rule:nonzero;"/>
        <path d="M83,27C82.6,27 82.2,26.8 81.9,26.6C81.8,26.5 81.8,26.5 81.7,26.4C81.7,26.3 81.6,26.2 81.6,26.1C81.6,26 81.5,25.9 81.5,25.8C81.5,25.7 81.5,25.6 81.5,25.5C81.5,25.1 81.7,24.7 81.9,24.4C82,24.3 82.1,24.3 82.1,24.2C82.2,24.1 82.3,24.1 82.4,24.1C82.5,24.1 82.6,24 82.7,24C82.9,24 83.1,24 83.3,24C83.4,24 83.5,24 83.6,24.1C83.7,24.1 83.8,24.2 83.9,24.2C84,24.2 84.1,24.3 84.1,24.4C84.4,24.7 84.5,25.1 84.5,25.5C84.5,25.6 84.5,25.7 84.5,25.8C84.5,25.9 84.5,26 84.4,26.1C84.4,26.2 84.3,26.3 84.3,26.4C84.2,26.5 84.2,26.5 84.1,26.6C84,26.7 84,26.7 83.9,26.8C83.8,26.8 83.7,26.9 83.6,26.9C83.5,26.9 83.4,27 83.3,27C83.2,27 83.1,27 83,27Z" style="fill:rgb(14,147,144);fill-rule:nonzero;"/>
        <path d="M95,27C94.6,27 94.2,26.8 93.9,26.6C93.8,26.5 93.8,26.5 93.7,26.4C93.7,26.3 93.6,26.2 93.6,26.2C93.6,26.1 93.5,26 93.5,25.9C93.5,25.8 93.5,25.7 93.5,25.6C93.5,25.2 93.7,24.8 93.9,24.5C94.5,23.9 95.5,23.9 96,24.5C96.3,24.8 96.4,25.2 96.4,25.6C96.4,25.7 96.4,25.8 96.4,25.9C96.4,26 96.4,26.1 96.3,26.2C96.3,26.3 96.2,26.4 96.2,26.4C96.1,26.5 96.1,26.6 96,26.6C95.8,26.8 95.4,27 95,27Z" style="fill:rgb(14,147,144);fill-rule:nonzero;"/>
    </g>
</svg>
