<?xml version="1.0" encoding="UTF-8" standalone="no"?>
<!DOCTYPE svg PUBLIC "-//W3C//DTD SVG 1.1//EN" "http://www.w3.org/Graphics/SVG/1.1/DTD/svg11.dtd">
<svg width="100%" height="100%" viewBox="0 0 80 80" version="1.1" xmlns="http://www.w3.org/2000/svg" xmlns:xlink="http://www.w3.org/1999/xlink" xml:space="preserve" style="fill-rule:evenodd;clip-rule:evenodd;stroke-linejoin:round;stroke-miterlimit:1.41421;">
    <g transform="matrix(1,0,0,1,-10.968,-9.852)">
        <path d="M12.01,59.287L14.057,64.906C14.058,64.909 14.06,64.91 14.061,64.912C14.063,64.915 14.06,64.916 14.061,64.918L14.399,65.668C14.399,65.669 14.4,65.668 14.401,65.669C14.401,65.671 14.4,65.673 14.401,65.674L16.932,70.812C16.935,70.817 16.942,70.816 16.944,70.82C16.949,70.826 16.946,70.835 16.95,70.841L20.512,75.566C20.515,75.57 20.521,75.569 20.523,75.572C20.527,75.576 20.526,75.582 20.529,75.585L20.534,75.59L24.673,79.785C24.677,79.789 24.684,79.788 24.688,79.791C24.693,79.795 24.691,79.801 24.696,79.804L29.43,83.247L29.431,83.248C29.431,83.248 29.433,83.248 29.433,83.249L29.44,83.254C29.443,83.257 29.449,83.257 29.453,83.259C29.457,83.26 29.457,83.265 29.46,83.267L34.71,86.118C34.717,86.121 34.725,86.12 34.731,86.124C34.736,86.125 34.737,86.131 34.742,86.132L34.91,86.185L41.021,88.137C41.027,88.14 41.032,88.139 41.038,88.14C41.041,88.141 41.041,88.143 41.043,88.143L46.893,89.268C46.905,89.271 46.916,89.272 46.927,89.272L53.827,89.291C53.836,89.291 53.846,89.29 53.855,89.289L59.442,88.389C59.445,88.389 59.445,88.387 59.447,88.386C59.453,88.384 59.459,88.386 59.465,88.383L59.481,88.378L59.483,88.378L65.465,86.62C65.469,86.619 65.469,86.616 65.472,86.614C65.481,86.612 65.489,86.612 65.496,86.608L65.501,86.606L65.502,86.605L71.571,83.496C71.576,83.494 71.576,83.488 71.581,83.485C71.584,83.483 71.59,83.484 71.595,83.481L76.001,80.293C76.005,80.29 76.005,80.285 76.007,80.282C76.012,80.279 76.017,80.281 76.02,80.277L80.895,75.608C80.901,75.603 80.899,75.595 80.904,75.589C80.907,75.585 80.915,75.587 80.918,75.582L80.922,75.576L80.923,75.576L80.928,75.567L84.856,70.088C84.86,70.082 84.857,70.076 84.86,70.07C84.863,70.065 84.869,70.068 84.872,70.063L87.291,65.169C87.293,65.165 87.289,65.162 87.292,65.158C87.292,65.157 87.293,65.156 87.294,65.154C87.295,65.152 87.298,65.151 87.299,65.147L89.512,58.697C89.514,58.691 89.509,58.687 89.51,58.681C89.513,58.675 89.519,58.671 89.52,58.664L89.521,58.657L89.521,58.653L90.401,52.532C90.403,52.528 90.398,52.524 90.398,52.519C90.399,52.514 90.404,52.511 90.404,52.506L90.404,46.77C90.404,46.764 90.399,46.761 90.398,46.755C90.398,46.751 90.403,46.747 90.401,46.742L89.389,39.955C89.387,39.948 89.38,39.944 89.378,39.937C89.377,39.931 89.381,39.925 89.379,39.919L87.317,34.256C87.317,34.255 87.315,34.255 87.315,34.254C87.315,34.253 87.315,34.252 87.315,34.25L86.996,33.463C86.995,33.461 86.993,33.461 86.991,33.458C86.991,33.456 86.993,33.453 86.991,33.451L84.46,28.351C84.459,28.348 84.456,28.348 84.454,28.346C84.452,28.34 84.448,28.336 84.445,28.331C84.442,28.329 84.445,28.324 84.442,28.322L80.88,23.596C80.877,23.593 80.872,23.593 80.868,23.589C80.866,23.586 80.867,23.581 80.864,23.577L80.848,23.562C80.847,23.56 80.847,23.56 80.846,23.559L76.687,19.381L76.686,19.38L76.682,19.376C76.678,19.373 76.672,19.374 76.669,19.37C76.664,19.367 76.665,19.361 76.66,19.357L71.954,15.907C71.951,15.905 71.945,15.906 71.941,15.904C71.936,15.901 71.936,15.897 71.933,15.894L66.693,13.05L66.687,13.046L66.683,13.044C66.677,13.04 66.671,13.044 66.665,13.041C66.659,13.039 66.657,13.033 66.651,13.031L60.351,11.024C60.348,11.023 60.344,11.027 60.34,11.025C60.336,11.024 60.334,11.019 60.33,11.018L54.498,9.893C54.492,9.892 54.488,9.897 54.482,9.897C54.476,9.896 54.471,9.89 54.465,9.89L47.565,9.852L47.564,9.852C47.559,9.852 47.556,9.857 47.551,9.857C47.546,9.858 47.542,9.855 47.538,9.856C47.536,9.856 47.535,9.855 47.534,9.855L41.928,10.773C41.923,10.775 41.922,10.779 41.917,10.781C41.914,10.782 41.91,10.778 41.907,10.779L35.934,12.534L35.909,12.541L35.908,12.542L35.907,12.542C35.901,12.543 35.899,12.551 35.893,12.553C35.887,12.555 35.88,12.551 35.874,12.554L29.818,15.666C29.813,15.669 29.812,15.676 29.807,15.678C29.803,15.681 29.797,15.68 29.794,15.682L29.79,15.69L29.789,15.69L29.777,15.699L25.369,18.892C25.366,18.895 25.366,18.899 25.362,18.903C25.359,18.905 25.354,18.904 25.35,18.908L20.479,23.573L20.476,23.575L20.475,23.577C20.47,23.58 20.473,23.587 20.468,23.592C20.464,23.597 20.456,23.596 20.452,23.602L16.514,29.077C16.511,29.082 16.513,29.088 16.511,29.093C16.508,29.098 16.501,29.099 16.499,29.104L16.496,29.108L16.496,29.11L14.099,33.998C14.097,34.003 14.1,34.006 14.098,34.011C14.097,34.015 14.092,34.016 14.091,34.019L14.09,34.021L14.09,34.022L14.081,34.046L11.878,40.469C11.876,40.475 11.881,40.481 11.879,40.487C11.878,40.493 11.871,40.497 11.87,40.503L10.97,46.634C10.969,46.639 10.974,46.643 10.974,46.647C10.973,46.652 10.968,46.656 10.968,46.661L10.987,52.418C10.987,52.423 10.992,52.427 10.993,52.431C10.993,52.436 10.988,52.439 10.989,52.443L11.981,59.197L11.982,59.208L11.983,59.213C11.984,59.217 11.988,59.22 11.989,59.223C11.99,59.231 11.991,59.235 11.993,59.241C11.994,59.243 11.993,59.243 11.993,59.244C11.994,59.246 11.991,59.247 11.993,59.25L11.993,59.251L12.01,59.287ZM48.572,51.06L46.32,45.574L52.197,46.826L48.572,51.06ZM52.471,47.062L54.605,52.718L48.846,51.295L52.471,47.062ZM49.58,57.356L45.024,60.088L45.289,55.599L49.58,57.356ZM45.424,55.267L48.428,51.782L49.723,57.026L45.424,55.267ZM48.765,51.646L54.518,53.068L50.084,56.994L48.765,51.646ZM52.818,46.965L59.062,48.411L54.961,52.646L52.818,46.965ZM52.243,46.468L46.342,45.21L49.93,40.532L52.243,46.468ZM50.268,40.407L56.691,41.637L52.591,46.369L50.268,40.407ZM48.24,51.194L42.774,50.685L45.99,45.711L48.24,51.194ZM48.155,51.548L45.152,55.031L42.797,51.05L48.155,51.548ZM44.667,60.047L40.548,56.507L44.932,55.564L44.667,60.047ZM49.828,57.628L50.334,63.319L45.184,60.415L49.828,57.628ZM54.758,53.337L55.486,59.209L50.325,57.263L54.758,53.337ZM59.316,48.664L60.774,54.516L55.23,52.887L59.316,48.664ZM52.864,46.605L56.965,41.872L59.134,48.058L52.864,46.605ZM50.311,40.049L54.279,35.14L56.741,41.281L50.311,40.049ZM46.062,44.981L43.62,39.776L49.639,40.319L46.062,44.981ZM42.475,50.49L39.784,45.685L45.688,45.515L42.475,50.49ZM42.167,50.679L36.487,51.067L39.478,45.879L42.167,50.679ZM44.844,55.215L40.454,56.158L42.492,51.24L44.844,55.215ZM44.476,60.354L39.195,62.279L40.274,56.744L44.476,60.354ZM50.139,63.622L44.773,65.918L44.992,60.721L50.139,63.622ZM50.187,57.595L55.342,59.539L50.694,63.293L50.187,57.595ZM55.105,53.226L60.662,54.857L55.836,59.122L55.105,53.226ZM59.658,48.552L65.673,50.017L61.123,54.429L59.658,48.552ZM59.752,48.205L64.051,43.565L65.775,49.671L59.752,48.205ZM59.484,47.966L57.31,41.771L63.796,43.31L59.484,47.966ZM54.622,35.028L61.285,36.33L57.089,41.177L54.622,35.028ZM50.033,39.82L47.696,34.124L53.989,34.925L50.033,39.82ZM49.702,39.963L43.656,39.418L47.369,34.274L49.702,39.963ZM45.745,45.153L39.818,45.323L43.3,39.939L45.745,45.153ZM36.158,50.918L33.155,46.032L39.16,45.71L36.158,50.918ZM42.185,51.037L40.109,56.052L36.512,51.425L42.185,51.037ZM38.85,62.164L34.89,57.682L39.928,56.638L38.85,62.164ZM44.634,60.681L44.415,65.873L39.357,62.602L44.634,60.681ZM50.373,63.913L50.559,69.206L44.996,66.213L50.373,63.913ZM55.555,59.83L56.183,65.835L50.891,63.597L55.555,59.83ZM60.895,55.132L61.799,61.391L56.051,59.413L60.895,55.132ZM65.922,50.275L67.201,56.375L61.373,54.688L65.922,50.275ZM64.398,43.468L70.201,45.119L66.117,49.559L64.398,43.468ZM57.361,41.414L61.559,36.564L63.855,42.956L57.361,41.414ZM54.672,34.671L58.689,30.056L61.321,35.971L54.672,34.671ZM47.757,33.77L51.569,29.109L54.036,34.57L47.757,33.77ZM43.361,39.211L40.892,33.71L47.074,34.067L43.361,39.211ZM39.498,45.155L36.721,39.821L42.992,39.753L39.498,45.155ZM39.193,45.349L33.165,45.673L36.417,40.02L39.193,45.349ZM35.862,51.125L30.633,51.767L32.877,46.266L35.862,51.125ZM39.838,56.29L34.796,57.335L36.246,51.669L39.838,56.29ZM38.627,62.456L33.561,63.773L34.66,57.963L38.627,62.456ZM44.177,66.147L38.617,68.123L39.107,62.868L44.177,66.147ZM44.396,66.451L44.293,71.889L38.82,68.433L44.396,66.451ZM44.756,66.493L50.336,69.494L44.654,71.937L44.756,66.493ZM50.733,63.92L55.998,66.148L50.92,69.2L50.733,63.92ZM55.908,59.744L61.65,61.72L56.539,65.775L55.908,59.744ZM61.243,55.026L67.081,56.715L62.147,61.29L61.243,55.026ZM66.267,50.168L71.79,51.611L67.542,56.252L66.267,50.168ZM66.366,49.821L70.436,45.394L71.877,51.262L66.366,49.821ZM64.459,43.11L68.445,38.512L70.267,44.762L64.459,43.11ZM64.203,42.855L61.913,36.48L68.203,38.24L64.203,42.855ZM59.049,29.983L65.512,31.518L61.676,35.884L59.049,29.983ZM54.379,34.458L51.91,28.991L58.383,29.859L54.379,34.458ZM47.462,33.562L45.258,28.358L51.259,28.917L47.462,33.562ZM47.135,33.711L40.969,33.354L44.926,28.496L47.135,33.711ZM43.049,39.393L36.77,39.46L40.574,33.881L43.049,39.393ZM32.851,45.497L30.059,40.219L36.102,39.845L32.851,45.497ZM30.316,51.589L27.134,46.494L32.567,46.071L30.316,51.589ZM35.922,51.479L34.468,57.161L30.681,52.122L35.922,51.479ZM33.224,63.62L29.005,58.723L34.325,57.791L33.224,63.62ZM38.754,62.796L38.266,68.025L33.709,64.108L38.754,62.796ZM44.047,72.159L38.397,73.97L38.582,68.708L44.047,72.159ZM50.579,69.782L50.766,75.089L44.9,72.224L50.579,69.782ZM56.238,66.423L56.696,71.926L51.141,69.488L56.238,66.423ZM61.871,62.004L62.45,68.086L56.76,66.059L61.871,62.004ZM62.224,61.906L68.022,63.645L62.803,67.994L62.224,61.906ZM62.371,61.575L67.307,56.999L68.177,63.316L62.371,61.575ZM72.02,51.894L73.279,58.015L67.771,56.536L72.02,51.894ZM70.784,45.302L75.484,46.913L72.212,51.11L70.784,45.302ZM68.797,38.435L74.095,40.365L70.608,44.648L68.797,38.435ZM68.825,38.062L72.132,34.012L74.107,39.985L68.825,38.062ZM61.948,36.117L65.785,31.752L68.223,37.872L61.948,36.117ZM59.083,29.624L62.689,25.813L65.499,31.147L59.083,29.624ZM51.981,28.638L55.754,24.594L58.411,29.501L51.981,28.638ZM45.367,28.007L49.091,24.2L51.305,28.559L45.367,28.007ZM45.031,27.835L43.017,23.306L48.755,24.027L45.031,27.835ZM40.653,33.17L38.428,28.043L44.609,28.314L40.653,33.17ZM36.454,39.281L33.929,33.838L40.26,33.7L36.454,39.281ZM36.15,39.481L30.101,39.856L33.628,34.044L36.15,39.481ZM32.557,45.711L27.119,46.136L29.778,40.46L32.557,45.711ZM30.049,51.839L24.86,52.499L26.873,46.751L30.049,51.839ZM34.23,57.442L28.906,58.376L30.431,52.39L34.23,57.442ZM32.995,63.903L27.886,64.935L28.782,59.014L32.995,63.903ZM38.042,68.306L32.884,69.774L33.473,64.378L38.042,68.306ZM38.224,68.63L38.037,73.865L33.071,70.094L38.224,68.63ZM44.293,72.458L44.395,77.579L38.649,74.267L44.293,72.458ZM44.655,72.504L50.51,75.364L44.756,77.632L44.655,72.504ZM50.941,69.794L56.487,72.23L51.126,75.087L50.941,69.794ZM56.597,66.383L62.258,68.4L57.054,71.892L56.597,66.383ZM63.036,68.269L68.232,63.939L68.52,69.781L63.036,68.269ZM68.3,70.092L63.031,73.841L62.844,68.59L68.3,70.092ZM67.653,56.876L73.17,58.356L68.522,63.176L67.653,56.876ZM72.36,51.769L77.256,53.169L73.609,57.846L72.36,51.769ZM72.431,51.413L75.705,47.216L77.3,52.807L72.431,51.413ZM70.834,44.938L74.295,40.687L75.54,46.552L70.834,44.938ZM72.504,33.99L77.068,36.189L74.452,39.886L72.504,33.99ZM68.579,37.793L66.158,31.714L71.898,33.729L68.579,37.793ZM63.091,25.802L68.974,27.568L65.881,31.097L63.091,25.802ZM58.777,29.421L56.129,24.529L62.37,25.626L58.777,29.421ZM51.657,28.458L49.439,24.093L55.401,24.446L51.657,28.458ZM43.163,22.963L46.939,19.883L48.827,23.674L43.163,22.963ZM44.693,27.958L38.555,27.688L42.669,23.405L44.693,27.958ZM40.334,33.339L34.022,33.475L38.105,28.202L40.334,33.339ZM29.796,39.667L27.557,34.509L33.307,33.882L29.796,39.667ZM29.509,39.909L24.346,40.566L27.282,34.78L29.509,39.909ZM29.468,40.276L26.82,45.926L24.306,40.934L29.468,40.276ZM24.561,52.263L21.821,47.052L26.562,46.548L24.561,52.263ZM30.109,52.192L28.585,58.173L24.909,52.853L30.109,52.192ZM27.553,64.728L23.447,59.54L28.449,58.813L27.553,64.728ZM33.125,64.245L32.535,69.634L28.039,65.273L33.125,64.245ZM37.777,74.12L32.765,75.105L32.849,70.377L37.777,74.12ZM44.104,77.827L38.619,79.185L38.4,74.539L44.104,77.827ZM50.787,75.642L50.973,80.287L45.067,77.897L50.787,75.642ZM56.737,72.504L57.023,77.316L51.404,75.347L56.737,72.504ZM62.487,68.681L62.673,73.93L57.307,72.159L62.487,68.681ZM68.512,70.383L68.245,75.161L63.299,74.093L68.512,70.383ZM68.585,63.802L73.783,65.071L68.873,69.627L68.585,63.802ZM68.742,63.47L73.371,58.671L73.947,64.741L68.742,63.47ZM77.449,53.507L78.372,59.332L73.823,58.157L77.449,53.507ZM76.047,47.103L80.178,48.446L77.623,52.626L76.047,47.103ZM74.645,40.597L78.696,42.492L75.874,46.392L74.645,40.597ZM74.664,40.21L77.26,36.54L78.698,42.095L74.664,40.21ZM72.49,33.585L75.171,30.509L77.024,35.768L72.49,33.585ZM66.155,31.331L69.248,27.802L71.854,33.333L66.155,31.331ZM63.053,25.415L65.766,22.336L68.879,27.164L63.053,25.415ZM56.183,24.175L59.532,21.094L62.345,25.256L56.183,24.175ZM49.561,23.739L53.043,20.423L55.448,24.088L49.561,23.739ZM49.19,23.596L47.304,19.81L52.661,20.289L49.19,23.596ZM42.789,22.804L41.128,19.3L46.541,19.743L42.789,22.804ZM38.211,27.527L36.434,23.251L42.303,23.268L38.211,27.527ZM33.699,33.306L31.734,28.427L37.765,28.055L33.699,33.306ZM33.395,33.51L27.666,34.136L31.435,28.642L33.395,33.51ZM24.059,40.338L22.339,35.65L26.961,34.616L24.059,40.338ZM26.547,46.186L21.818,46.69L24.049,41.222L26.547,46.186ZM24.313,52.567L19.787,53.137L21.581,47.368L24.313,52.567ZM28.35,58.465L23.345,59.192L24.681,53.154L28.35,58.465ZM27.33,65.023L22.82,65.577L23.257,59.878L27.33,65.023ZM32.299,69.904L27.688,70.74L27.838,65.577L32.299,69.904ZM32.491,70.235L32.408,74.94L27.903,71.067L32.491,70.235ZM38.036,74.437L38.253,79.057L33.032,75.421L38.036,74.437ZM44.417,78.12L44.717,82.282L38.974,79.47L44.417,78.12ZM44.781,78.169L50.637,80.538L45.081,82.341L44.781,78.169ZM51.146,75.64L56.753,77.604L51.33,80.274L51.146,75.64ZM57.095,72.468L62.434,74.23L57.381,77.269L57.095,72.468ZM67.929,75.462L62.904,78.47L63.037,74.404L67.929,75.462ZM68.88,70.23L73.557,71.029L68.615,74.989L68.88,70.23ZM69.102,69.903L73.958,65.399L73.807,70.707L69.102,69.903ZM73.717,58.502L78.276,59.679L74.289,64.524L73.717,58.502ZM77.786,53.327L81.596,54.504L78.698,59.076L77.786,53.327ZM77.837,52.965L80.375,48.814L81.628,54.136L77.837,52.965ZM76.072,46.73L78.887,42.837L80.197,48.071L76.072,46.73ZM77.637,36.556L81.495,39.318L79.058,42.048L77.637,36.556ZM75.582,30.594L80.094,33.515L77.42,35.812L75.582,30.594ZM72.244,33.318L69.664,27.839L74.942,30.221L72.244,33.318ZM66.22,22.378L71.832,24.316L69.316,27.178L66.22,22.378ZM62.75,25.214L59.956,21.081L65.444,22.155L62.75,25.214ZM55.828,24.013L53.432,20.363L59.146,20.959L55.828,24.013ZM47.527,19.467L50.637,17.405L52.669,19.928L47.527,19.467ZM41.42,18.962L45.932,16.349L46.76,19.4L41.42,18.962ZM42.439,22.906L36.651,22.889L40.769,19.383L42.439,22.906ZM37.887,27.687L31.905,28.057L36.106,23.402L37.887,27.687ZM27.354,33.951L25.934,29.508L31.079,28.523L27.354,33.951ZM27.062,34.225L22.465,35.253L25.652,29.809L27.062,34.225ZM23.791,40.654L19.898,41.463L22.091,36.02L23.791,40.654ZM23.737,41.032L21.546,46.405L19.848,41.841L23.737,41.032ZM19.51,52.812L17.458,47.684L21.279,47.122L19.51,52.812ZM24.363,52.923L23.035,58.923L19.825,53.495L24.363,52.923ZM22.484,65.264L18.858,60.042L22.917,59.608L22.484,65.264ZM27.482,65.367L27.332,70.516L22.999,65.916L27.482,65.367ZM32.129,75.173L28.15,75.417L27.727,71.388L32.129,75.173ZM37.936,79.273L33.248,79.651L32.805,75.7L37.936,79.273ZM44.312,82.485L39.202,83.204L38.681,79.725L44.312,82.485ZM50.996,80.8L51.194,84.286L45.521,82.576L50.996,80.8ZM57.044,77.862L57.127,81.827L51.687,80.499L57.044,77.862ZM62.672,74.508L62.539,78.571L57.698,77.497L62.672,74.508ZM68.17,75.738L67.571,79.232L63.252,78.681L68.17,75.738ZM73.724,71.356L73.006,75.528L68.884,75.235L73.724,71.356ZM74.324,65.188L78.405,65.901L74.176,70.447L74.324,65.188ZM74.485,64.852L78.425,60.064L78.575,65.568L74.485,64.852ZM81.763,54.914L82.434,59.927L78.897,59.437L81.763,54.914ZM80.687,48.56L83.873,49.015L81.923,53.81L80.687,48.56ZM79.248,42.791L82.092,44.46L80.503,47.813L79.248,42.791ZM79.249,42.376L81.628,39.71L82.106,44.052L79.249,42.376ZM77.629,36.106L80.287,33.823L81.477,38.862L77.629,36.106ZM75.522,30.128L77.944,27.722L80.023,33.041L75.522,30.128ZM69.589,27.411L72.106,24.547L74.838,29.779L69.589,27.411ZM66.088,21.951L68.221,19.276L71.651,23.871L66.088,21.951ZM59.863,20.694L61.83,17.777L65.306,21.76L59.863,20.694ZM53.44,20.001L55.857,17.241L59.089,20.589L53.44,20.001ZM53.081,19.864L51.041,17.331L55.438,17.171L53.081,19.864ZM47.107,19.312L46.296,16.32L50.227,17.244L47.107,19.312ZM40.996,18.791L40.851,15.732L45.471,16.198L40.996,18.791ZM36.261,22.748L35.347,19.419L40.326,19.288L36.261,22.748ZM31.551,27.91L30.323,24.044L35.699,23.314L31.551,27.91ZM31.243,28.124L26.146,29.1L30.018,24.27L31.243,28.124ZM22.18,35.024L21.353,31.081L25.297,29.701L22.18,35.024ZM19.638,41.147L18.493,37.001L21.783,35.823L19.638,41.147ZM19.383,41.571L16.283,42.229L18.242,37.443L19.383,41.571ZM21.291,46.755L17.493,47.315L19.597,42.201L21.291,46.755ZM19.277,53.202L15.923,53.627L17.248,48.13L19.277,53.202ZM22.814,59.257L18.751,59.691L19.633,53.878L22.814,59.257ZM22.285,65.607L18.846,65.672L18.731,60.488L22.285,65.607ZM27.104,70.799L23.205,71.012L22.844,66.276L27.104,70.799ZM27.338,71.146L27.76,75.164L23.483,71.357L27.338,71.146ZM32.421,75.516L32.859,79.42L28.451,75.758L32.421,75.516ZM38.297,79.605L38.816,83.056L33.664,79.977L38.297,79.605ZM44.767,82.784L45.183,85.601L39.757,83.489L44.767,82.784ZM45.138,82.836L50.681,84.506L45.557,85.664L45.138,82.836ZM51.355,80.789L56.738,82.101L51.552,84.268L51.355,80.789ZM57.404,77.801L62.235,78.873L57.486,81.743L57.404,77.801ZM67.185,79.544L62.755,82.219L62.884,78.997L67.185,79.544ZM68.562,75.573L72.627,75.862L67.966,79.044L68.562,75.573ZM74.129,71.121L77.597,71.589L73.419,75.249L74.129,71.121ZM74.35,70.788L78.511,66.316L77.858,71.26L74.35,70.788ZM78.78,59.783L82.33,60.276L78.928,65.222L78.78,59.783ZM82.079,54.565L85.216,54.339L82.742,59.515L82.079,54.565ZM82.15,54.2L84.088,49.437L85.283,53.973L82.15,54.2ZM80.717,48.201L82.311,44.838L83.842,48.647L80.717,48.201ZM82.01,39.881L84.662,43.174L82.477,44.126L82.01,39.881ZM80.699,34.011L84.113,37.073L81.87,38.963L80.699,34.011ZM78.426,27.966L82.467,31.22L80.463,33.176L78.426,27.966ZM75.284,29.856L72.575,24.668L77.714,27.443L75.284,29.856ZM68.77,19.411L74.184,21.728L72.159,23.949L68.77,19.411ZM65.781,21.757L62.316,17.785L67.906,19.093L65.781,21.757ZM59.538,20.534L56.312,17.196L61.492,17.635L59.538,20.534ZM50.921,16.974L51.607,14.733L55.217,16.818L50.921,16.974ZM50.552,16.948L46.747,16.055L51.23,14.73L50.552,16.948ZM41.353,15.421L45.967,13.359L45.871,15.879L41.353,15.421ZM40.644,18.919L35.731,19.048L40.499,15.859L40.644,18.919ZM35.936,22.919L30.628,23.639L35.018,19.577L35.936,22.919ZM25.779,28.981L24.87,25.666L29.584,24.235L25.779,28.981ZM25.482,29.255L21.58,30.62L24.583,25.979L25.482,29.255ZM21.892,35.402L18.629,36.569L21.076,31.514L21.892,35.402ZM16.102,41.725L15.803,38.398L17.921,37.28L16.102,41.725ZM19.311,41.953L17.251,46.957L16.205,42.612L19.311,41.953ZM15.674,53.128L14.32,48.348L16.965,47.775L15.674,53.128ZM19.318,53.56L18.448,59.283L15.956,53.985L19.318,53.56ZM18.473,65.15L15.619,60.142L18.361,60.079L18.473,65.15ZM22.459,65.966L22.814,70.644L19.043,66.031L22.459,65.966ZM27.493,75.407L24.285,75.283L23.362,71.73L27.493,75.407ZM27.841,75.78L28.526,78.968L24.655,75.656L27.841,75.78ZM28.272,76.077L32.526,79.612L28.96,79.283L28.272,76.077ZM38.35,83.198L34.199,83.027L33.388,80.233L38.35,83.198ZM44.521,85.729L39.757,85.883L39.295,83.695L44.521,85.729ZM51.247,84.749L51.683,86.965L46.269,85.872L51.247,84.749ZM57.124,82.331L57.044,85.114L52.069,84.442L57.124,82.331ZM62.521,79.12L62.392,82.348L57.873,81.928L62.521,79.12ZM67.404,79.831L66.666,82.165L63.264,82.331L67.404,79.831ZM67.844,79.631L70.83,80.056L67.101,81.981L67.844,79.631ZM68.204,79.319L72.762,76.208L71.3,79.759L68.204,79.319ZM77.641,72.029L76.28,76.238L73.543,75.621L77.641,72.029ZM78.918,65.976L82.151,66.251L78.271,70.874L78.918,65.976ZM79.087,65.628L82.45,60.738L82.337,65.905L79.087,65.628ZM85.396,54.802L85.878,59.8L82.937,59.944L85.396,54.802ZM84.35,49.016L86.949,48.605L85.522,53.467L84.35,49.016ZM82.557,44.483L84.725,43.538L84.044,48.183L82.557,44.483ZM82.014,39.312L84.241,37.436L84.718,42.668L82.014,39.312ZM80.657,33.488L82.646,31.548L84.046,36.527L80.657,33.488ZM78.272,27.38L79.86,25.605L82.232,30.57L78.272,27.38ZM72.432,24.183L74.459,21.961L77.509,26.924L72.432,24.183ZM68.529,18.916L70.137,17.167L73.793,21.171L68.529,18.916ZM62.13,17.37L63.858,15.195L67.601,18.65L62.13,17.37ZM56.168,16.822L57.765,14.409L61.248,17.253L56.168,16.822ZM55.794,16.735L52.116,14.61L57.378,14.342L55.794,16.735ZM46.232,15.832L46.327,13.307L50.826,14.475L46.232,15.832ZM40.855,15.248L40.964,13.019L45.39,13.22L40.855,15.248ZM35.271,18.922L35.079,16.11L39.999,15.758L35.271,18.922ZM30.195,23.549L29.515,20.475L34.532,19.537L30.195,23.549ZM29.875,23.771L25.211,25.186L29.2,20.714L29.875,23.771ZM21.188,30.563L20.261,28.048L24.126,26.021L21.188,30.563ZM18.32,36.381L17.509,33.463L20.707,31.449L18.32,36.381ZM18.062,36.797L15.929,37.923L17.281,33.987L18.062,36.797ZM15.791,42.29L13.908,42.246L15.492,38.96L15.791,42.29ZM16.988,47.401L14.363,47.97L15.961,43.131L16.988,47.401ZM15.447,53.65L13.313,53.588L14.133,49.013L15.447,53.65ZM18.256,59.721L15.504,59.784L15.823,54.551L18.256,59.721ZM18.357,65.672L16.239,65.642L15.61,60.853L18.357,65.672ZM22.618,70.972L19.848,70.66L18.993,66.539L22.618,70.972ZM22.895,71.366L23.796,74.833L20.175,71.06L22.895,71.366ZM24.654,76.132L28.085,79.066L25.715,78.419L24.654,76.132ZM25.088,77.919L22.293,75.593L24.027,75.635L25.088,77.919ZM32.949,80.012L33.746,82.753L29.458,79.691L32.949,80.012ZM38.902,83.58L39.358,85.735L34.865,83.414L38.902,83.58ZM45.273,86.067L45.793,87.785L40.696,86.215L45.273,86.067ZM45.665,86.118L50.865,87.167L46.19,87.856L45.665,86.118ZM51.613,84.744L56.456,85.397L52.05,86.955L51.613,84.744ZM57.487,82.254L61.936,82.667L57.408,85.019L57.487,82.254ZM66.196,82.547L63.206,84.677L62.783,82.713L66.196,82.547ZM70.696,80.528L68.504,83.137L67.17,82.348L70.696,80.528ZM73.264,75.928L75.964,76.537L71.814,79.455L73.264,75.928ZM78.141,71.654L80.866,71.873L76.794,75.819L78.141,71.654ZM78.375,71.312L82.179,66.78L81.133,71.534L78.375,71.312ZM82.82,60.31L85.753,60.165L82.708,65.404L82.82,60.31ZM85.708,54.292L88.018,53.948L86.176,59.144L85.708,54.292ZM85.764,53.919L87.168,49.13L88.073,53.575L85.764,53.919ZM84.338,48.652L85.037,43.892L86.941,48.24L84.338,48.652ZM84.641,37.87L87.025,41.972L85.105,42.963L84.641,37.87ZM83.148,32.005L85.974,35.514L84.486,36.758L83.148,32.005ZM80.535,26.181L83.795,29.498L82.772,30.861L80.535,26.181ZM78.039,27.101L75.071,22.269L79.634,25.318L78.039,27.101ZM70.978,17.554L75.699,20.08L74.488,21.397L70.978,17.554ZM68.215,18.728L64.549,15.343L69.813,16.989L68.215,18.728ZM61.784,17.228L58.326,14.404L63.499,15.07L61.784,17.228ZM51.771,14.27L52.556,12.316L56.882,14.007L51.771,14.27ZM51.393,14.249L47.04,13.119L52.17,12.309L51.393,14.249ZM41.872,12.7L46.504,11.337L46.025,12.891L41.872,12.7ZM40.491,15.364L35.73,15.704L40.599,13.138L40.491,15.364ZM34.923,19.097L29.989,20.021L34.731,16.296L34.923,19.097ZM24.756,25.155L24.237,22.561L28.653,20.786L24.756,25.155ZM24.447,25.448L20.633,27.448L23.936,22.888L24.447,25.448ZM20.925,30.888L17.752,32.884L20.012,28.413L20.925,30.888ZM15.551,37.922L14.681,36.799L16.814,34.244L15.551,37.922ZM15.402,38.316L13.974,41.281L14.567,37.238L15.402,38.316ZM15.74,42.65L14.201,47.313L13.82,42.604L15.74,42.65ZM13.11,52.687L12.314,47.724L13.89,48.328L13.11,52.687ZM15.496,54.013L15.187,59.08L13.359,53.95L15.496,54.013ZM15.757,64.729L13.475,59.973L15.154,60.135L15.757,64.729ZM18.522,66.035L19.353,70.04L16.437,66.005L18.522,66.035ZM23.711,75.266L21.899,75.223L20.301,71.713L23.711,75.266ZM25.342,78.598L24.964,79.101L23.025,76.67L25.342,78.598ZM28.658,79.595L29.017,81.394L26.276,78.945L28.658,79.595ZM29.078,79.862L33.133,82.758L29.455,81.744L29.078,79.862ZM38.459,85.676L34.346,84.923L34.261,83.505L38.459,85.676ZM44.516,87.769L40.287,87.474L39.898,86.346L44.516,87.769ZM51.821,87.39L52.545,88.588L47.475,88.031L51.821,87.39ZM57.142,85.537L58.096,87.102L52.923,87.028L57.142,85.537ZM62.436,82.812L62.868,84.814L58.048,85.091L62.436,82.812ZM66.81,82.553L68.098,83.315L64.068,84.505L66.81,82.553ZM71.486,80.149L73.55,80.45L69.292,82.759L71.486,80.149ZM71.886,79.845L75.826,77.074L74.018,80.155L71.886,79.845ZM80.68,72.553L78.929,76.216L76.855,76.261L80.68,72.553ZM82.659,66.271L85.069,66.101L81.639,70.906L82.659,66.271ZM82.838,65.897L85.806,60.792L85.275,65.726L82.838,65.897ZM88.12,54.737L88.18,59.319L86.353,59.723L88.12,54.737ZM87.407,48.493L88.981,47.86L88.26,52.687L87.407,48.493ZM85.184,43.326L87.091,42.341L87.029,47.543L85.184,43.326ZM84.619,37.116L86.098,35.88L86.943,41.112L84.619,37.116ZM82.966,31.203L83.977,29.855L85.69,34.584L82.966,31.203ZM80.143,25.266L80.772,24.423L83.084,28.26L80.143,25.266ZM74.762,21.63L75.974,20.314L79.137,24.551L74.762,21.63ZM70.466,16.872L71.33,16.197L74.684,19.131L70.466,16.872ZM64.196,14.854L65.462,13.736L69.139,16.399L64.196,14.854ZM58.044,14.004L59.147,12.433L62.969,14.639L58.044,14.004ZM57.659,13.925L53.455,12.279L58.752,12.37L57.659,13.925ZM46.414,12.853L46.9,11.275L51.369,12.071L46.414,12.853ZM41.049,12.569L41.346,11.45L45.353,11.302L41.049,12.569ZM35.109,15.624L35.33,13.852L39.76,13.173L35.109,15.624ZM29.469,19.97L29.392,17.656L34.069,16.359L29.469,19.97ZM29.115,20.211L24.835,21.933L29.039,17.927L29.115,20.211ZM20.177,27.464L20.019,25.52L23.247,23.229L20.177,27.464ZM17.352,32.882L16.829,30.933L19.475,28.681L17.352,32.882ZM17.102,33.339L14.975,35.885L16.598,31.464L17.102,33.339ZM13.488,42.114L12.504,41.472L14.089,38.014L13.488,42.114ZM13.891,47.943L12.309,47.337L13.522,43.373L13.891,47.943ZM12.873,53.486L11.681,53.042L12.125,48.816L12.873,53.486ZM15.048,59.763L13.354,59.599L13.295,54.845L15.048,59.763ZM15.773,65.592L14.709,65.434L13.736,61.349L15.773,65.592ZM19.384,70.693L18.057,70.905L16.661,66.928L19.384,70.693ZM19.592,71.024L21.13,74.404L18.291,71.233L19.592,71.024ZM21.698,75.585L23.402,77.721L21.095,75.616L21.698,75.585ZM25.613,78.834L27.887,80.867L25.234,79.339L25.613,78.834ZM33.892,83.34L33.975,84.729L30.364,82.368L33.892,83.34ZM39.477,86.228L39.854,87.319L35.71,85.54L39.477,86.228ZM45.973,88.23L46.452,88.803L42.694,88.001L45.973,88.23ZM50.588,88.735L47.007,88.904L46.489,88.285L50.588,88.735ZM52.233,87.38L57.148,87.45L52.97,88.596L52.233,87.38ZM57.528,85.481L62.215,85.211L58.486,87.053L57.528,85.481ZM67.49,83.868L64.297,86.039L63.414,85.073L67.49,83.868ZM72.829,81.251L70.166,83.62L69.025,83.313L72.829,81.251ZM74.188,80.524L75.148,80.413L72.088,82.392L74.188,80.524ZM76.503,76.629L78.517,76.587L74.762,79.599L76.503,76.629ZM81.4,71.882L83.063,71.501L79.778,75.275L81.4,71.882ZM81.697,71.444L84.842,67.037L83.426,71.047L81.697,71.444ZM86.24,60.117L88.049,59.716L85.737,64.801L86.24,60.117ZM88.469,53.854L89.647,53.443L88.525,58.043L88.469,53.854ZM88.51,53.457L89.19,48.902L89.705,53.041L88.51,53.457ZM87.384,48.113L87.444,43.073L88.979,47.472L87.384,48.113ZM86.598,36.717L88.604,40.845L87.407,41.725L86.598,36.717ZM84.744,30.921L86.925,34.312L86.281,35.166L84.744,30.921ZM84.225,29.45L84.348,28.957L85.689,31.725L84.225,29.45ZM83.962,29.018L82.286,26.239L84.097,28.476L83.962,29.018ZM79.906,24.98L77.077,21.19L80.543,24.128L79.906,24.98ZM75.984,19.789L73.678,17.772L76.262,19.529L75.984,19.789ZM70.133,16.676L66.81,14.269L70.984,16.011L70.133,16.676ZM63.815,14.712L60.149,12.595L65.06,13.611L63.815,14.712ZM52.778,11.907L53.549,10.682L57.82,11.993L52.778,11.907ZM52.368,11.884L48.132,11.128L53.123,10.682L52.368,11.884ZM46.684,10.894L43.51,11.011L47.133,10.306L46.684,10.894ZM40.65,12.671L36.692,13.278L40.941,11.575L40.65,12.671ZM34.725,15.803L30.306,17.029L34.943,14.053L34.725,15.803ZM24.277,21.968L24.498,20.332L28.069,18.353L24.277,21.968ZM23.863,22.349L20.935,24.428L24.072,20.794L23.863,22.349ZM19.852,27.886L17.325,30.036L19.698,26.012L19.852,27.886ZM14.44,36.298L14.051,35.349L15.852,32.452L14.44,36.298ZM14.253,36.79L12.938,39.661L13.891,35.905L14.253,36.79ZM13.413,42.497L12.311,46.099L12.445,41.866L13.413,42.497ZM11.549,50.86L11.351,47.061L11.898,47.52L11.549,50.86ZM12.921,53.889L12.976,58.256L11.748,53.452L12.921,53.889ZM13.018,59.88L13.72,62.829L12.506,59.586L13.018,59.88ZM15.947,65.981L17.206,69.568L14.918,65.829L15.947,65.981ZM21.396,75.24L20.751,75.271L19.194,72.78L21.396,75.24ZM29.14,82.003L29.269,82.652L26.833,80.674L29.14,82.003ZM29.562,82.274L32.38,84.117L29.702,82.979L29.562,82.274ZM36.801,86.398L34.906,85.803L34.687,85.491L36.801,86.398ZM58.369,87.488L58.993,88.065L54.899,88.441L58.369,87.488ZM63.047,85.203L63.915,86.155L59.613,86.899L63.047,85.203ZM68.576,83.563L69.654,83.854L65.815,85.441L68.576,83.563ZM74.714,80.1L77.727,77.683L75.803,79.974L74.714,80.1ZM81.976,73.3L80.644,75.339L79.821,75.777L81.976,73.3ZM85.583,66.024L86.675,65.503L84.369,69.459L85.583,66.024ZM85.807,65.519L87.821,61.092L86.968,64.963L85.807,65.519ZM89.452,55.754L89.165,58.548L88.668,58.97L89.452,55.754ZM89.824,51.09L89.397,47.654L90.019,47.158L89.824,51.09ZM87.489,42.111L88.671,41.243L88.955,46.309L87.489,42.111ZM86.435,35.56L87.062,34.728L88.215,39.22L86.435,35.56ZM76.258,20.026L76.541,19.762L78.669,22.069L76.258,20.026ZM66.013,13.546L66.569,13.4L68.875,14.739L66.013,13.546ZM59.497,12.095L60.322,11.41L63.87,12.997L59.497,12.095ZM59.054,11.994L55.322,10.848L59.851,11.333L59.054,11.994ZM47.166,10.854L47.646,10.225L51.249,10.489L47.166,10.854ZM35.743,13.271L36.059,12.878L38.173,12.296L35.743,13.271ZM29.59,17.06L30.037,15.97L33.44,14.59L29.59,17.06ZM29.063,17.393L26.188,18.986L29.473,16.398L29.063,17.393ZM20.491,24.393L20.75,23.814L22.003,22.643L20.491,24.393ZM16.82,30.184L16.841,29.249L18.598,27.17L16.82,30.184ZM16.445,30.817L15.187,32.841L16.461,30.052L16.445,30.817ZM12.287,40.76L12.236,40.536L12.635,39.386L12.287,40.76ZM11.919,47.067L11.35,46.588L12.033,43.478L11.919,47.067ZM12.895,59.396L12.332,59.072L11.957,55.724L12.895,59.396ZM17.482,70.708L17.227,70.595L16.46,69.04L17.482,70.708ZM17.814,71.249L18.326,72.067L17.655,71.178L17.814,71.249ZM34.057,85.221L34.205,85.433L32.938,84.745L34.057,85.221ZM53.838,88.922L53.784,88.905L54.154,88.871L53.838,88.922ZM58.808,87.403L62.593,86.748L59.451,87.997L58.808,87.403ZM67.215,85.254L65.379,86.257L64.941,86.193L67.215,85.254ZM79.16,76.537L79.702,76.248L78.17,77.716L79.16,76.537ZM84.557,69.879L84.517,69.921L84.639,69.712L84.557,69.879ZM88.525,59.561L88.955,59.197L87.978,62.047L88.525,59.561ZM89.365,47.218L89.124,42.921L90.019,46.699L89.365,47.218ZM88.871,40.329L88.227,37.819L89.013,39.978L88.871,40.329ZM65.465,13.315L63.288,12.342L65.948,13.189L65.465,13.315ZM54.214,10.367L54.481,10.263L56.042,10.564L54.214,10.367ZM53.439,10.286L52.9,10.248L53.529,10.251L53.439,10.286ZM35.058,13.546L33.565,14.151L35.282,13.268L35.058,13.546ZM19.677,25.336L19.5,25.546L19.72,25.239L19.677,25.336ZM12.091,41.538L12.069,41.64L12.087,41.519L12.091,41.538ZM64.291,86.461L64.576,86.503L63.08,86.942L64.291,86.461ZM89.41,42.569L89.018,40.916L89.123,40.657L89.41,42.569Z" style="fill:rgb(255,141,142);fill-rule:nonzero;"/>
    </g>
</svg>
